PathFileType	3	(X/Y/Z)	D:\minhoCalibration\240510\subject1_KPNP\preferred\preferred03.trc
DataRate	CameraRate	NumFrames	NumMarkers	Units	OrigDataRate	OrigDataStartFrame	OrigNumFrames
200.0	200.0	18	10	mm	200.0	361	196	
Frame#	Time	Left_Ankle_Outer1			Left_Ankle_Inner1			Left_Knee_Outer1			Left_Knee_Inner1			Left_Wrist1			Right_Wrist1			Right_Knee_Inner1			Right_Knee_Outer1			Right_Ankle_Inner1			Right_Ankle_Outer1			
		X1	Y1	Z1	X2	Y2	Z2	X3	Y3	Z3	X4	Y4	Z4	X5	Y5	Z5	X6	Y6	Z6	X7	Y7	Z7	X8	Y8	Z8	X9	Y9	Z9	X10	Y10	Z10	
361	1.795	-514.78302	116.036	-556.70087	-563.08759	126.2438	-527.02112	-365.71146	516.21014	-379.63681	-476.84818	500.45789	-366.43701	-332.97235	980.62238	-513.60828	-684.55475	1002.9403	-533.93384	-617.99683	557.48523	-316.22748	-729.25873	586.24677	-346.93774	-664.90497	212.94037	-599.86865	-753.21558	228.75636	-634.44568
362	1.8	-513.9704	115.91515	-556.92908	-562.45941	126.12695	-527.5451	-365.93628	516.16876	-378.72763	-477.34052	500.33612	-366.2962	-333.42062	980.54309	-512.1535	-684.29724	1000.8968	-538.73413	-623.47241	552.95929	-326.3819	-733.45447	581.58972	-359.60803	-663.94995	212.15828	-616.34637	-751.46008	228.68427	-652.7561
363	1.805	-513.14801	115.82738	-557.20947	-561.65277	126.01957	-528.24182	-366.48526	515.99207	-377.99515	-477.34109	500.38385	-366.35315	-333.81494	980.54572	-510.77588	-685.01099	1000.4945	-542.591	-628.85815	548.75739	-336.5787	-737.50641	577.34802	-372.87073	-662.38647	211.68916	-632.87726	-749.40851	228.80191	-670.51495
364	1.81	-512.31024	115.67132	-557.52032	-561.08057	125.84536	-529.26123	-366.401	515.97009	-377.49976	-478.09549	499.91974	-366.20221	-334.28094	980.65961	-509.44449	-684.9364	998.86768	-547.17706	-634.06299	544.95972	-346.78098	-741.36212	573.65173	-385.95645	-661.24872	211.03612	-648.16351	-746.96466	229.05519	-687.90521
365	1.815	-511.55835	115.519	-557.8667	-560.33337	125.57462	-529.58661	-366.56512	515.92975	-377.1503	-478.70175	500.06909	-365.47519	-336.06839	980.6839	-507.53659	-685.04388	998.48468	-551.6441	-639.29633	541.2832	-357.0589	-745.06848	570.32941	-399.43378	-659.74762	210.49693	-663.34045	-744.0885	229.44548	-704.82294
366	1.82	-510.9231	115.31534	-558.15485	-559.87952	125.44563	-530.05664	-366.83609	515.89508	-376.85742	-478.37921	499.73309	-366.41989	-336.28159	980.86603	-506.37418	-685.37689	998.23779	-555.97974	-643.93384	538.02295	-367.56174	-748.6333	567.46344	-412.66861	-657.76385	210.20856	-678.26984	-741.16101	229.89209	-721.31708
367	1.825	-510.38922	115.24934	-558.32599	-559.56787	125.49628	-530.62408	-367.11615	516.32294	-376.47067	-479.38226	499.81644	-365.5578	-337.83136	980.89832	-504.7059	-685.63269	997.51782	-560.79535	-648.72131	535.15753	-377.99277	-751.89886	564.83734	-426.08136	-655.39349	210.25511	-692.95837	-737.99432	230.46512	-737.38947
368	1.83	-509.99139	115.20703	-558.60718	-559.26447	125.46899	-531.01837	-367.48111	516.32501	-376.46732	-479.37714	499.14606	-366.74789	-338.54434	981.0271	-503.47989	-685.95081	997.10168	-565.49493	-653.5835	532.37952	-389.11502	-754.90558	562.66644	-439.34521	-653.02167	210.0972	-706.86566	-734.60284	231.08322	-752.95587
369	1.835	-509.58682	115.20349	-558.87469	-559.11322	125.49893	-531.40717	-367.93271	516.35583	-376.50217	-479.62366	499.44638	-366.8345	-339.69171	981.12659	-502.15005	-686.29834	997.14453	-570.22852	-658.05536	529.94238	-399.88373	-757.8017	560.72919	-452.54095	-650.44446	210.07675	-720.57452	-730.98047	231.59348	-768.10718
370	1.84	-509.15753	115.35774	-559.16418	-558.8385	125.50896	-531.62592	-368.47211	516.53204	-376.60492	-480.26935	499.50464	-367.11887	-341.45038	981.12933	-500.73474	-686.79669	996.58423	-575.01984	-662.36285	527.703	-410.48538	-760.59839	558.89056	-465.89102	-647.42651	210.19054	-733.89868	-727.22772	232.04411	-782.7547
371	1.845	-509.06497	115.23653	-559.35504	-558.82526	125.57755	-531.84351	-369.14969	516.78473	-376.6033	-481.01877	499.68307	-367.48227	-343.10196	981.10309	-499.39935	-687.10291	996.73724	-579.70557	-666.45093	525.54236	-421.24557	-763.03833	557.35205	-478.80984	-644.43488	210.31825	-746.78345	-723.33722	232.47214	-796.95319
372	1.85	-509.07135	115.2939	-559.31842	-558.76318	125.59631	-531.92126	-369.85239	517.16309	-376.66336	-481.83264	500.00476	-367.82971	-344.63199	981.20752	-498.30612	-687.83545	996.15515	-584.44495	-670.2807	523.39154	-432.0997	-765.28229	556.08807	-491.77777	-641.15802	210.44487	-759.28534	-719.32465	232.78325	-810.62695
373	1.855	-508.87692	115.60307	-559.4248	-558.80096	125.82674	-532.02948	-370.72009	517.68323	-376.68149	-482.82111	500.4939	-368.22354	-346.1738	981.29187	-497.31827	-687.64099	996.55115	-589.58612	-673.97638	521.50018	-442.81659	-767.12347	554.87939	-504.49371	-637.81775	210.56633	-771.33356	-715.12701	232.99425	-823.94098
374	1.86	-508.6857	115.8035	-559.41107	-558.60492	125.9513	-532.02521	-371.79822	518.24921	-376.70975	-483.93607	501.07474	-368.70035	-347.9267	981.43933	-496.49112	-688.10907	996.18903	-594.21606	-677.48621	519.77252	-453.60721	-768.89117	553.90283	-517.22308	-634.29919	210.76338	-782.98907	-710.83209	233.14253	-836.79736
375	1.865	-508.48563	115.89738	-559.48553	-558.52618	126.02426	-532.34814	-372.96362	518.92487	-376.75119	-485.0101	501.71585	-369.26831	-349.62051	981.78479	-495.88745	-687.9397	995.95435	-599.31818	-680.71375	518.19275	-464.3822	-770.61273	553.15808	-529.95801	-630.7691	210.8318	-794.35919	-706.534	233.19356	-849.17987
376	1.87	-508.09479	116.03075	-559.6001	-558.07532	125.79755	-532.28888	-374.30768	519.66949	-376.7291	-486.41095	502.36206	-370.00079	-351.33572	982.00293	-495.36179	-687.97437	996.1955	-604.08917	-683.8031	516.79999	-475.12119	-771.81561	552.59241	-542.38953	-627.03705	210.96671	-805.21301	-701.87146	233.20541	-861.14624
377	1.875	-507.73801	116.05504	-559.6676	-558.15985	125.83059	-532.09778	-375.71371	520.4024	-376.87073	-487.94943	503.01929	-370.88763	-352.9122	982.16937	-495.02304	-688.10876	995.49255	-608.88629	-686.54529	515.52423	-485.73157	-772.64484	552.06647	-554.75024	-623.23682	211.02757	-815.66479	-697.59772	232.83432	-872.67896
378	1.88	-507.05795	116.12804	-559.88312	-557.46167	125.95515	-532.82617	-377.37531	521.14606	-376.93259	-489.59946	503.59958	-371.97409	-354.55258	982.38177	-494.78439	-688.10754	995.57483	-613.47925	-689.0459	514.40875	-496.26645	-773.39569	551.57153	-567.13818	-619.40295	210.90501	-825.83331	-692.81409	232.68552	-883.84741
